<svg width="37" height="37" viewBox="0 0 37 37" fill="none" xmlns="http://www.w3.org/2000/svg">
<path fill-rule="evenodd" clip-rule="evenodd" d="M3.7812 13.9401H9.82465V35H3.7812V13.9401ZM6.6487 11.3051H6.6053C4.41825 11.3067 3 9.6978 3 7.658C3 5.5779 4.4601 4 6.69055 4C8.91945 4 10.2912 5.57325 10.333 7.6518C10.333 9.69005 8.91945 11.3067 6.6487 11.3067V11.3051ZM34 35H27.149V24.1004C27.149 21.2484 26.0764 19.3031 23.7204 19.3031C21.9177 19.3031 20.9149 20.616 20.4499 21.8839C20.2732 22.3365 20.3011 22.9689 20.3011 23.6044V35H13.5121C13.5121 35 13.6004 15.6947 13.5121 13.9401H20.3011V17.2447C20.7025 15.8001 22.871 13.7371 26.3306 13.7371C30.6256 13.7371 34 16.7689 34 23.2897V35Z" fill="#171A37"/>
</svg>
