<svg width="42" height="34" viewBox="0 0 42 34" fill="none" xmlns="http://www.w3.org/2000/svg">
<path d="M19.712 0.937932C19.4191 0.645038 18.9442 0.645038 18.6513 0.937932L13.8783 5.7109C13.5854 6.0038 13.5854 6.47867 13.8783 6.77156C14.1712 7.06446 14.6461 7.06446 14.939 6.77156L19.1816 2.52892L23.4243 6.77156C23.7172 7.06446 24.192 7.06446 24.4849 6.77156C24.7778 6.47867 24.7778 6.0038 24.4849 5.7109L19.712 0.937932ZM18.4316 1.46826V20.8622H19.9316V1.46826H18.4316Z" fill="#67EDBA"/>
<path d="M0.28393 30.3362C0.160752 30.7317 0.381492 31.1522 0.776967 31.2753L7.2216 33.2826C7.61707 33.4058 8.03752 33.1851 8.1607 32.7896C8.28388 32.3941 8.06314 31.9737 7.66766 31.8505L1.9391 30.0662L3.72337 24.3377C3.84655 23.9422 3.62581 23.5218 3.23033 23.3986C2.83486 23.2754 2.41441 23.4961 2.29123 23.8916L0.28393 30.3362ZM19.1818 21.0137L19.2441 20.2663L19.0265 20.2481L18.8332 20.3496L19.1818 21.0137ZM41.4845 23.4044C41.8007 23.1368 41.8401 22.6636 41.5725 22.3474L37.2124 17.1945C36.9449 16.8783 36.4716 16.8389 36.1554 17.1065C35.8392 17.374 35.7998 17.8472 36.0673 18.1635L39.943 22.7438L35.3627 26.6194C35.0465 26.887 35.007 27.3602 35.2746 27.6764C35.5422 27.9926 36.0154 28.0321 36.3316 27.7645L41.4845 23.4044ZM1.34863 31.2233L19.5304 21.6777L18.8332 20.3496L0.65137 29.8952L1.34863 31.2233ZM19.1195 21.7611L40.9377 23.5793L41.0623 22.0844L19.2441 20.2663L19.1195 21.7611Z" fill="#67EDBA"/>
</svg>
