<svg width="34" height="36" viewBox="0 0 34 36" fill="none" xmlns="http://www.w3.org/2000/svg">
<path d="M5.53546 21.8994C5.50715 21.8994 5.56431 21.903 5.53546 21.8994V21.8994Z" fill="#67EDBA"/>
<path d="M33.0267 31.3691C30.656 31.3691 28.3182 31.1058 26.0499 30.6003C26.3544 29.753 26.518 28.8492 26.5271 27.9199C26.5481 25.7975 25.7598 23.8169 24.3075 22.3428C23.3438 21.3647 22.1399 20.6527 20.826 20.2838C20.8146 20.2806 20.8032 20.2777 20.7918 20.2751C17.4745 19.347 14.4759 17.7219 11.8792 15.4445C11.5953 15.1955 11.1634 15.2239 10.9144 15.5077C10.6655 15.7916 10.6937 16.2235 10.9777 16.4725C11.9239 17.3023 12.9205 18.0504 13.9639 18.7148C14.5819 19.9092 14.8869 21.2469 14.8462 22.5986C14.8349 22.976 15.1316 23.2911 15.509 23.3024C15.516 23.3026 15.523 23.3027 15.5299 23.3027C15.898 23.3027 16.2018 23.01 16.2129 22.6396C16.2419 21.6767 16.1205 20.7197 15.8587 19.8025C16.986 20.3831 18.1603 20.8742 19.378 21.2737C20.0809 22.4135 20.4852 23.7118 20.5493 25.044C20.5669 25.41 20.8691 25.6948 21.2316 25.6948C21.2427 25.6948 21.2539 25.6945 21.265 25.694C21.6421 25.6758 21.9332 25.3554 21.915 24.9783C21.8634 23.9055 21.623 22.8522 21.2117 21.8647C22.0021 22.1972 22.7255 22.6854 23.3334 23.3024C25.1734 25.1699 25.6305 27.9263 24.7177 30.2734C17.472 28.3302 11.0306 23.882 6.64089 17.5789C6.42506 17.2691 5.99908 17.193 5.68918 17.4086C5.37935 17.6244 5.30313 18.0505 5.51889 18.3604C8.5447 22.705 12.608 26.3172 17.2695 28.8063C19.4282 29.959 21.7146 30.8673 24.0752 31.5195C23.8429 31.8721 23.5746 32.2078 23.2689 32.52C21.839 33.8855 19.6931 34.4299 17.7983 33.9069C15.5714 33.2923 13.4532 32.3299 11.5229 31.0671C12.1539 31.0041 12.7794 30.8765 13.3952 30.6814C13.7552 30.5674 13.9545 30.1831 13.8406 29.8232C13.7265 29.4633 13.3425 29.264 12.9824 29.3779C11.891 29.7236 10.7648 29.826 9.63184 29.6838C9.04158 29.2031 8.47415 28.6918 7.93332 28.151C5.93468 26.1524 4.37966 23.8334 3.28692 21.3386C3.99148 21.6136 4.77159 21.8034 5.53598 21.8991C5.87561 21.8991 6.21306 21.6488 6.25633 21.303C6.3033 20.9284 6.03764 20.5866 5.66293 20.5397C4.55467 20.4009 3.51307 20.0379 2.56246 19.4605C0.820935 14.2665 0.986583 8.49957 3.22935 3.34228C3.88613 6.35812 5.11717 9.2455 6.84256 11.7922C7.05436 12.1047 7.47931 12.1865 7.79201 11.9748C8.10457 11.763 8.18634 11.3379 7.97454 11.0253C5.97132 8.06854 4.67438 4.6246 4.22413 1.06615C4.18701 0.772523 3.96509 0.536119 3.67434 0.480538C3.38372 0.424753 3.09016 0.562644 2.94721 0.821883C1.71597 3.05433 0.8571 5.46241 0.39434 7.97905C-0.0616527 10.459 -0.122497 12.9842 0.213447 15.4847C0.912065 20.6844 3.24726 25.3988 6.96651 29.1181C9.87412 32.0257 13.494 34.1374 17.4346 35.2251C18.0279 35.3888 18.6409 35.4683 19.2544 35.4683C21.0673 35.4683 22.8843 34.7746 24.2071 33.5145C24.2148 33.5075 24.2227 33.5012 24.2302 33.4938C24.2369 33.4873 24.2423 33.4804 24.2486 33.4738C24.7236 32.9883 25.1295 32.45 25.4617 31.8717C27.9344 32.4431 30.4757 32.7365 33.0268 32.7365C33.4043 32.7365 33.7104 32.4305 33.7104 32.0529C33.7104 31.6753 33.4043 31.3691 33.0267 31.3691Z" fill="#67EDBA"/>
<path d="M9.29693 14.5211C9.47673 14.5211 9.65311 14.448 9.78027 14.3208C9.90743 14.1936 9.98058 14.0173 9.98058 13.8375C9.98058 13.6577 9.90743 13.4813 9.78027 13.3541C9.65311 13.227 9.47673 13.1538 9.29693 13.1538C9.11713 13.1538 8.94075 13.227 8.81359 13.3541C8.68643 13.4813 8.61328 13.6577 8.61328 13.8375C8.61328 14.0179 8.68643 14.1936 8.81359 14.3208C8.94075 14.448 9.11713 14.5211 9.29693 14.5211Z" fill="#67EDBA"/>
</svg>
