<svg width="40" height="30" viewBox="0 0 40 30" fill="none" xmlns="http://www.w3.org/2000/svg">
<path d="M34.145 0.811503C33.6875 0.353848 32.9454 0.353848 32.4878 0.811503C32.0301 1.26916 32.0301 2.01111 32.4878 2.46876C35.8203 5.80118 37.6555 10.2351 37.6555 14.9536C37.6555 19.6721 35.8203 24.106 32.4878 27.4384C32.0301 27.896 32.0301 28.638 32.4878 29.0957C32.9462 29.5541 33.6882 29.5525 34.145 29.0957C37.9202 25.3206 39.9992 20.2982 39.9992 14.9536C39.9992 9.60898 37.9202 4.58657 34.145 0.811503Z" fill="#67EDBA"/>
<path d="M30.5972 4.35978C30.1395 3.90221 29.3975 3.90221 28.9399 4.35978C28.4823 4.81744 28.4823 5.55939 28.9399 6.01705C31.3253 8.40227 32.6391 11.576 32.6391 14.9535C32.6391 18.331 31.3254 21.5047 28.9399 23.89C28.4823 24.3476 28.4823 25.0896 28.9399 25.5472C29.3974 26.0047 30.1394 26.005 30.5972 25.5472C33.4253 22.7193 34.9828 18.957 34.9828 14.9534C34.9828 10.9498 33.4252 7.18767 30.5972 4.35978Z" fill="#67EDBA"/>
<path d="M27.0474 7.91105C26.5897 7.45348 25.8477 7.45348 25.3901 7.91105C24.9325 8.36871 24.9325 9.11074 25.3901 9.56831C26.8276 11.0057 27.6193 12.9183 27.6193 14.9538C27.6193 16.9892 26.8276 18.9019 25.3901 20.3392C24.9325 20.7968 24.9325 21.5388 25.3901 21.9965C25.8477 22.4541 26.5896 22.4542 27.0474 21.9965C28.9275 20.1164 29.963 17.6152 29.963 14.9537C29.963 12.2921 28.9275 9.79113 27.0474 7.91105Z" fill="#67EDBA"/>
<path d="M2.34374 14.954C2.34374 10.2355 4.17897 5.80164 7.51147 2.46922C7.96912 2.01165 7.96912 1.26962 7.51147 0.811962C7.05389 0.354385 6.31194 0.354307 5.8542 0.811962C2.07906 4.58703 0 9.60944 0 14.954C0 20.2986 2.07906 25.321 5.8542 29.0961C6.3117 29.5537 7.05381 29.5538 7.51147 29.0961C7.96912 28.6385 7.96912 27.8965 7.51147 27.4389C4.17897 24.1064 2.34374 19.6725 2.34374 14.954Z" fill="#67EDBA"/>
<path d="M7.36132 14.9535C7.36132 11.576 8.67499 8.40238 11.0605 6.01708C11.5181 5.55942 11.5181 4.81747 11.0605 4.35981C10.6029 3.90216 9.86085 3.90224 9.40319 4.35981C6.57507 7.1877 5.01758 10.95 5.01758 14.9535C5.01758 18.957 6.57507 22.7194 9.40319 25.5473C9.86147 26.0055 10.6034 26.0044 11.0605 25.5473C11.518 25.0897 11.518 24.3477 11.0605 23.8901C8.67499 21.5048 7.36132 18.331 7.36132 14.9535Z" fill="#67EDBA"/>
<path d="M14.6119 7.91111C14.1544 7.45346 13.4123 7.45346 12.9547 7.91111C11.0745 9.79119 10.0391 12.2924 10.0391 14.9539C10.0391 17.6155 11.0745 20.1166 12.9547 21.9967C13.413 22.4549 14.1549 22.4537 14.6119 21.9967C15.0696 21.539 15.0695 20.797 14.6119 20.3394C13.1744 18.9021 12.3828 16.9895 12.3828 14.954C12.3828 12.9185 13.1744 11.0059 14.6119 9.56853C15.0695 9.1108 15.0695 8.36877 14.6119 7.91111Z" fill="#67EDBA"/>
<path d="M20 10.0161C17.2774 10.0161 15.0625 12.2311 15.0625 14.9536C15.0625 17.6761 17.2775 19.8911 20 19.8911C22.7225 19.8911 24.9375 17.6761 24.9375 14.9536C24.9375 12.2311 22.7226 10.0161 20 10.0161ZM20 17.5473C18.5698 17.5473 17.4062 16.3837 17.4062 14.9536C17.4062 13.5234 18.5698 12.3599 20 12.3599C21.4301 12.3599 22.5937 13.5234 22.5937 14.9536C22.5937 16.3837 21.4302 17.5473 20 17.5473Z" fill="#67EDBA"/>
</svg>
