<svg width="18" height="22" viewBox="0 0 18 22" fill="none" xmlns="http://www.w3.org/2000/svg">
<path d="M6 11.7778L8.14286 14L12 10" stroke="#67EDBA" stroke-width="2" stroke-linecap="round" stroke-linejoin="round"/>
<path d="M11.8293 3L10.8865 3.33325L11.1221 4H11.8293V3ZM6.17071 3V4H6.87788L7.11355 3.33325L6.17071 3ZM11.8293 4H15V2H11.8293V4ZM15 4C15.5523 4 16 4.44772 16 5H18C18 3.34315 16.6569 2 15 2V4ZM16 5V19H18V5H16ZM16 19C16 19.5523 15.5523 20 15 20V22C16.6569 22 18 20.6569 18 19H16ZM15 20H3V22H15V20ZM3 20C2.44771 20 2 19.5523 2 19H0C0 20.6569 1.34315 22 3 22V20ZM2 19V5H0V19H2ZM2 5C2 4.44772 2.44772 4 3 4V2C1.34315 2 0 3.34315 0 5H2ZM3 4H6.17071V2H3V4ZM7.11355 3.33325C7.38858 2.5551 8.13075 2 9 2V0C7.25681 0 5.7765 1.11451 5.22787 2.66675L7.11355 3.33325ZM9 2C9.86925 2 10.6114 2.5551 10.8865 3.33325L12.7721 2.66675C12.2235 1.11451 10.7432 0 9 0V2Z" fill="#67EDBA"/>
<circle cx="9" cy="5" r="1" fill="#67EDBA"/>
</svg>
