<svg width="21" height="22" viewBox="0 0 21 22" fill="none" xmlns="http://www.w3.org/2000/svg">
<path d="M1 3.10728V14.7931C1 15.9425 1.84639 16.9004 2.86205 16.9004H4.21627C5.29965 20.8084 6.857 21 7.1617 21C7.66953 21 7.83881 20.5019 8.21122 19.5441C8.58363 18.5479 9.19303 16.9004 9.904 16.9004H18.3002C19.3158 16.9004 20.1622 15.9425 20.1622 14.7931V3.10728C20.1622 1.95785 19.3158 1 18.3002 1H2.86205C1.84639 1 1 1.95785 1 3.10728ZM2.01567 3.10728C2.01567 2.57088 2.38808 2.14943 2.86205 2.14943H18.3002C18.7741 2.14943 19.1465 2.57088 19.1465 3.10728V14.7931C19.1465 15.3295 18.7741 15.751 18.3002 15.751H9.83629C9.80243 15.751 9.76857 15.751 9.70086 15.751C8.41435 15.9425 7.73724 17.8582 7.26327 19.1226C7.1617 19.3525 7.06013 19.6973 6.99242 19.8889C6.2476 19.5824 5.40122 17.5517 5.06266 16.1341V16.0958C5.06266 16.0958 5.06266 16.0575 5.0288 16.0575C5.0288 16.0575 5.0288 16.0192 4.99495 16.0192C4.99495 16.0192 4.99495 15.9808 4.96109 15.9808L4.92724 15.9425L4.89338 15.9042L4.85953 15.8659L4.82567 15.8276C4.82567 15.8276 4.79182 15.8276 4.79182 15.7893C4.79182 15.7893 4.75796 15.7893 4.75796 15.751H4.72411H4.69025C4.65639 15.751 4.65639 15.751 4.62254 15.751H4.58868H2.89591C2.42193 15.751 2.04952 15.3295 2.04952 14.7931V3.10728H2.01567Z" fill="#67EDBA" stroke="#67EDBA"/>
<path d="M15.728 6.40236H5.23277C4.96192 6.40236 4.75879 6.13416 4.75879 5.82764C4.75879 5.52113 4.96192 5.25293 5.23277 5.25293H15.728C15.9988 5.25293 16.202 5.52113 16.202 5.82764C16.202 6.13416 15.9988 6.40236 15.728 6.40236Z" fill="#67EDBA" stroke="#67EDBA"/>
<path d="M15.728 9.46729H5.23277C4.96192 9.46729 4.75879 9.19909 4.75879 8.89258C4.75879 8.58607 4.96192 8.31787 5.23277 8.31787H15.728C15.9988 8.31787 16.202 8.58607 16.202 8.89258C16.202 9.19909 15.9988 9.46729 15.728 9.46729Z" fill="#67EDBA" stroke="#67EDBA"/>
<path d="M15.728 12.5325H5.23277C4.96192 12.5325 4.75879 12.2643 4.75879 11.9578C4.75879 11.6513 4.96192 11.3831 5.23277 11.3831H15.728C15.9988 11.3831 16.202 11.6513 16.202 11.9578C16.202 12.2643 15.9988 12.5325 15.728 12.5325Z" fill="#67EDBA" stroke="#67EDBA"/>
</svg>
