<svg width="84" height="70" viewBox="0 0 84 70" fill="none" xmlns="http://www.w3.org/2000/svg">
<circle cx="53.6673" cy="30.3333" r="30.3333" fill="white" fill-opacity="0.25"/>
<circle cx="53.666" cy="30.3335" r="21" fill="white" fill-opacity="0.25"/>
<circle cx="53.666" cy="30.3335" r="14" fill="white" fill-opacity="0.4"/>
<path d="M63.5046 43.2613H62.3905V38.8049C62.3905 36.9621 60.8909 35.4625 59.0482 35.4625H56.8199C56.4277 35.4625 56.0556 35.5427 55.7058 35.6675V32.1202C55.7058 30.2774 54.2062 28.7778 52.3635 28.7778H50.1352C48.2925 28.7778 46.7928 30.2774 46.7928 32.1202V43.2613H20.0541V32.1202C20.0541 30.2774 18.5545 28.7778 16.7117 28.7778H14.4835C12.6407 28.7778 11.1411 30.2774 11.1411 32.1202V35.6675C10.7913 35.5427 10.4191 35.4625 10.027 35.4625H7.79876C5.95603 35.4625 4.45642 36.9621 4.45642 38.8049V43.2613H3.34235C1.49962 43.2613 0 44.7609 0 46.6036V51.06C0 52.9028 1.49962 54.4024 3.34235 54.4024H4.45642V59.973C4.45642 61.8157 5.95603 63.3154 7.79876 63.3154H10.027C10.4192 63.3154 10.7913 63.2352 11.1411 63.1104V66.6577C11.1411 68.5004 12.6407 70.0001 14.4835 70.0001H16.7117C18.5545 70.0001 20.0541 68.5004 20.0541 66.6577V54.4024H46.7928V66.6577C46.7928 68.5004 48.2925 70.0001 50.1352 70.0001H52.3635C54.2062 70.0001 55.7058 68.5004 55.7058 66.6577V63.1104C56.0556 63.2352 56.4278 63.3154 56.8199 63.3154H59.0482C60.8909 63.3154 62.3905 61.8157 62.3905 59.973V54.4024H63.5046C65.3473 54.4024 66.8469 52.9028 66.8469 51.06V46.6036C66.8469 44.7609 65.3473 43.2613 63.5046 43.2613ZM4.45642 52.1741H3.34235C2.72741 52.1741 2.22827 51.675 2.22827 51.06V46.6036C2.22827 45.9887 2.72741 45.4896 3.34235 45.4896H4.45642V52.1741ZM11.1411 59.973C11.1411 60.588 10.642 61.0871 10.027 61.0871H7.79876C7.18382 61.0871 6.68469 60.588 6.68469 59.973V53.2883V44.3754V38.8047C6.68469 38.1898 7.18382 37.6907 7.79876 37.6907H10.027C10.642 37.6907 11.1411 38.1898 11.1411 38.8047V59.973ZM17.8258 66.6577C17.8258 67.2726 17.3267 67.7718 16.7117 67.7718H14.4835C13.8685 67.7718 13.3694 67.2726 13.3694 66.6577V59.973V38.8047V32.12C13.3694 31.5051 13.8685 31.006 14.4835 31.006H16.7117C17.3267 31.006 17.8258 31.5051 17.8258 32.12V66.6577ZM46.7928 52.1741H20.0541V45.4894H46.7928V52.1741ZM53.4775 38.8047V59.9729V66.6576C53.4775 67.2725 52.9784 67.7716 52.3635 67.7716H50.1352C49.5202 67.7716 49.0211 67.2725 49.0211 66.6576V32.12C49.0211 31.5051 49.5202 31.006 50.1352 31.006H52.3635C52.9784 31.006 53.4775 31.5051 53.4775 32.12V38.8047ZM60.1622 44.3754V53.2883V59.973C60.1622 60.588 59.6631 61.0871 59.0482 61.0871H56.8199C56.2049 61.0871 55.7058 60.588 55.7058 59.973V38.8047C55.7058 38.1898 56.2049 37.6907 56.8199 37.6907H59.0482C59.6631 37.6907 60.1622 38.1898 60.1622 38.8047V44.3754ZM64.6186 51.06C64.6186 51.675 64.1195 52.1741 63.5046 52.1741H62.3905V45.4894H63.5046C64.1195 45.4894 64.6186 45.9886 64.6186 46.6035V51.06Z" fill="white"/>
<circle cx="53.6463" cy="30.3333" r="3.11111" fill="white" stroke="white" stroke-width="2"/>
</svg>
