<svg width="40" height="26" viewBox="0 0 40 26" fill="none" xmlns="http://www.w3.org/2000/svg">
<path d="M38 9.1349H37.3334V6.46826C37.3334 5.36561 36.436 4.46826 35.3334 4.46826H34C33.7653 4.46826 33.5427 4.51623 33.3334 4.59092V2.46826C33.3334 1.36561 32.436 0.468262 31.3334 0.468262H30C28.8973 0.468262 28 1.36561 28 2.46826V9.1349H12V2.46826C12 1.36561 11.1027 0.468262 10 0.468262H8.66664C7.56398 0.468262 6.66664 1.36561 6.66664 2.46826V4.59092C6.45734 4.51623 6.23461 4.46826 6 4.46826H4.66664C3.56398 4.46826 2.66664 5.36561 2.66664 6.46826V9.1349H2C0.897344 9.1349 0 10.0322 0 11.1349V13.8015C0 14.9042 0.897344 15.8015 2 15.8015H2.66664V19.1349C2.66664 20.2376 3.56398 21.1349 4.66664 21.1349H6C6.23469 21.1349 6.45734 21.0869 6.66664 21.0122V23.1349C6.66664 24.2376 7.56398 25.1349 8.66664 25.1349H10C11.1027 25.1349 12 24.2376 12 23.1349V15.8015H28V23.1349C28 24.2376 28.8973 25.1349 30 25.1349H31.3334C32.436 25.1349 33.3334 24.2376 33.3334 23.1349V21.0122C33.5427 21.0869 33.7654 21.1349 34 21.1349H35.3334C36.436 21.1349 37.3334 20.2376 37.3334 19.1349V15.8015H38C39.1027 15.8015 40 14.9042 40 13.8015V11.1349C40 10.0322 39.1027 9.1349 38 9.1349ZM2.66664 14.4682H2C1.63203 14.4682 1.33336 14.1695 1.33336 13.8015V11.1349C1.33336 10.7669 1.63203 10.4683 2 10.4683H2.66664V14.4682ZM6.66664 19.1349C6.66664 19.5029 6.36797 19.8015 6 19.8015H4.66664C4.29867 19.8015 4 19.5029 4 19.1349V15.1349V9.80154V6.46818C4 6.10021 4.29867 5.80154 4.66664 5.80154H6C6.36797 5.80154 6.66664 6.10021 6.66664 6.46818V19.1349ZM10.6666 23.1349C10.6666 23.5029 10.368 23.8015 10 23.8015H8.66664C8.29867 23.8015 8 23.5029 8 23.1349V19.1349V6.46818V2.46818C8 2.10021 8.29867 1.80154 8.66664 1.80154H10C10.368 1.80154 10.6666 2.10021 10.6666 2.46818V23.1349ZM28 14.4682H12V10.4682H28V14.4682ZM32 6.46818V19.1348V23.1348C32 23.5028 31.7013 23.8015 31.3334 23.8015H30C29.632 23.8015 29.3334 23.5028 29.3334 23.1348V2.46818C29.3334 2.10021 29.632 1.80154 30 1.80154H31.3334C31.7013 1.80154 32 2.10021 32 2.46818V6.46818ZM36 9.80154V15.1349V19.1349C36 19.5029 35.7013 19.8015 35.3334 19.8015H34C33.632 19.8015 33.3334 19.5029 33.3334 19.1349V6.46818C33.3334 6.10021 33.632 5.80154 34 5.80154H35.3334C35.7013 5.80154 36 6.10021 36 6.46818V9.80154ZM38.6666 13.8015C38.6666 14.1695 38.368 14.4682 38 14.4682H37.3334V10.4682H38C38.368 10.4682 38.6666 10.7669 38.6666 11.1348V13.8015Z" fill="#67EDBA"/>
</svg>
