<svg width="37" height="37" viewBox="0 0 37 37" fill="none" xmlns="http://www.w3.org/2000/svg">
<g clip-path="url(#clip0)">
<path fill-rule="evenodd" clip-rule="evenodd" d="M31.8767 8.74333C33.3976 7.7715 34.5181 6.28483 35.0333 4.555C33.6343 5.43281 32.0902 6.05472 30.4733 6.39167C29.8198 5.64341 29.0142 5.04307 28.1104 4.63066C27.2065 4.21825 26.2251 4.00326 25.2317 4C21.265 4 18.0533 7.39167 18.0533 11.5733C18.0533 12.1667 18.1133 12.745 18.2367 13.2967C12.27 12.98 6.98 9.97 3.43667 5.385C2.79604 6.55189 2.46174 7.86216 2.465 9.19333C2.465 11.82 3.73167 14.1383 5.66 15.4983C4.51332 15.4574 3.39479 15.1321 2.405 14.5517V14.645C2.405 18.315 4.87833 21.3783 8.16833 22.07C7.55273 22.2493 6.91452 22.3391 6.27333 22.3367C5.81167 22.3367 5.36 22.2917 4.92333 22.2033C5.83667 25.21 8.48833 27.4033 11.6317 27.4617C9.17167 29.4933 6.07667 30.7017 2.71333 30.7017C2.14064 30.7027 1.56843 30.6682 1 30.5983C4.24471 32.8104 8.07965 33.9956 12.0067 34C25.2167 34 32.435 22.46 32.435 12.4517C32.435 12.1233 32.4317 11.795 32.4183 11.4733C33.836 10.3889 35.0489 9.06033 36 7.55C34.6963 8.16043 33.305 8.56254 31.8767 8.74167V8.74333Z" fill="#171A37"/>
</g>
<defs>
<clipPath id="clip0">
<rect width="35" height="30" fill="white" transform="translate(1 4)"/>
</clipPath>
</defs>
</svg>
